<svg width="28" height="38" viewBox="0 0 28 38" xmlns="http://www.w3.org/2000/svg" xmlns:sketch="http://www.bohemiancoding.com/sketch/ns"><title>Shape</title><desc>Created with Sketch.</desc><path d="M27.479 14.075c-.044.527.168.998-.473.932l-.269-.008-3.114 20.579c-8.996 4.325-16.824 0-16.824 0v-.601c.068-.667.921-2.977.935-3.003l.153-.473c-.001-.002-1.788-.479-1.789-.488.014-.019-.47-3.599-.467-3.604.004.01.938-8.06.935-8.049l.898.09c0 .005.327-2.851.325-2.853l-4.051-.553-.16-1.027s-.299.048-.518.018c-.22-.03-.343-.113-.351-1.201-.234-2.416.95-13.334 12.385-13.334 11.802 0 12.569 11.371 12.385 13.575zm-19.77 11.278l-.058.193-.018.089-.005.031-.005.044-.006.077v.068l.001.028.001.041.004.035.011.08.012.065.035.135c.056.174.136.327.229.463.222.328.506.584.824.812l.238.16.16.097.079.046.096.053.016.008.04.022.013.006.076.038.019.011.037.018.032.016.181.086.175.076.133.055.043.016.089.036.029.01.069.026.023.007.053.019.147.05.137.044.048.014.058.018.03.008-.012.047-.015.067-.006.03-.032.138-.011.054-.033.157-.008.048-.002.017-.015.076-.006.043-.026.154-.007.046-.001.011-.009.062-.002.029-.012.082-.018.153-.018.193v.011l-.004.053-.001.023-.005.065-.005.118-.004.132v.043l-.001.031.001.046v.026l.001.046v.025l.001.028v.024l.004.056v.017l.004.056v.012l.004.044v.011l.002.038.002.026.009.085.002.028.014.107.012.079.002.019.012.065.032.148.012.054.019.071.032.102.011.037.039.107.063.15.013.024.022.046.009.019.032.058.093.145.072.094.034.037.013.013.02.022.021.02.023.023.007.008.034.03.098.076.229.125.11.04.113.029.053.011.058.008.012.001.034.004.032.004.091.005.042.001h.069l.089-.006.028-.001.098-.011.086-.013.05-.008.154-.036.036-.008.082-.023.178-.06.042-.014.19-.077.194-.09.065-.035.07-.036.044-.023.118-.067.028-.016.113-.068.354-.237.286-.216.113-.091.025-.023.145-.121.013-.012.043-.037.014-.014.068-.059.012-.013.068-.06.025-.024.085-.08.025-.025.023-.023.008-.008.02-.019.012-.011.011.01.029.029.035.032.007.008.019.017.011.011.014.013.008.008.076.071.015.016.054.049.013.012.04.036.006.006.125.109.028.025.088.073.011.011.047.038.172.137.248.185.293.196.122.074.037.02.104.06.036.018.039.022.04.02.051.026.062.031.144.066.167.067.065.024.182.059.054.014.021.005.069.018.102.02.021.004.096.016.04.004.075.007.022.001.029.002h.044l.051.001h.027l.043-.002h.014l.043-.002.033-.004.081-.011.106-.023.03-.006.097-.03.071-.029.114-.056.029-.017.139-.096.048-.041.011-.011.03-.029.014-.014.025-.026.028-.028.054-.066.014-.016.047-.064.09-.142.046-.084.011-.023.023-.049.015-.032.03-.072.043-.114.027-.084.026-.082.018-.062.021-.088.022-.101.006-.035.027-.151.008-.058.001-.016.009-.065.012-.113.011-.13.001-.035.005-.07.001-.017.001-.036.002-.043v-.062l.001-.054v-.152l-.004-.125-.005-.119-.005-.065v-.011l-.004-.046v-.01l-.004-.049-.002-.029-.002-.026-.009-.088v-.008l-.006-.05-.021-.184-.02-.135-.005-.035-.015-.095-.004-.028-.014-.079-.011-.059-.04-.199-.011-.054-.036-.157-.012-.054-.007-.025.001-.004.022-.006.046-.014.153-.049.112-.04.037-.013.018-.005.064-.024.021-.007.092-.035.033-.012.122-.048.222-.092.209-.096.117-.058.032-.017.076-.038.084-.046.036-.018.143-.08.145-.089.265-.179.164-.125.091-.076.083-.072.026-.025.025-.023.069-.067.051-.053.014-.013.033-.037.009-.008.041-.047.025-.03.07-.088.102-.147.069-.115.025-.049.023-.048.019-.041.039-.097.051-.174.014-.073.009-.065v-.013l.006-.053.001-.03v-.07200000000000001l-.001-.025v-.028l-.008-.073-.006-.048-.028-.133-.04-.124-.136-.282-.027-.044-.069-.103-.084-.109-.067-.078-.027-.03-.027-.029-.037-.04-.039-.038-.016-.017-.061-.056-.013-.014-.048-.042-.056-.048-.096-.077-.04-.032-.123-.092-.286-.189-.117-.071-.032-.017-.138-.077-.042-.022-.063-.032-.096-.048-.114-.056-.22-.099-.157-.065-.511-.189-.216-.07-.071-.022-.029-.008h-.001l.009-.04.023-.101.006-.028.03-.137.008-.041.013-.07.014-.076.002-.017.016-.084.004-.026.015-.086.002-.024.021-.136.007-.049.007-.056.002-.018.009-.073.001-.02.012-.096.012-.13.002-.036.008-.091.001-.022.002-.036v-.013l.002-.028v-.013l.002-.047v-.017l.004-.059.002-.094v-.206l-.001-.041v-.014l-.001-.041v-.022l-.006-.114-.006-.082v-.019l-.005-.046-.001-.018-.005-.047-.018-.147-.011-.078-.011-.065-.027-.137-.006-.029-.049-.197-.035-.111-.006-.019-.043-.12-.122-.255-.046-.078-.082-.118-.063-.078-.023-.026-.014-.014-.035-.037-.014-.014-.033-.029-.041-.036-.099-.074-.187-.101-.112-.042-.139-.035-.051-.01-.068-.01h-.015l-.068-.006-.032-.002h-.101l-.026.001h-.019l-.071.005-.055.005-.033.004-.083.013-.014.002-.113.022-.079.02-.021.005-.054.014-.102.032-.076.025-.145.054-.346.161-.098.052-.023.011-.166.096-.111.068-.158.102-.091.065-.106.073-.193.145-.125.1-.035.03-.153.127-.012.012-.056.047-.02.019-.075.066-.025.023-.089.08-.025.023-.026.026-.089.083-.007.008-.02.018-.013.014-.036.035-.009.008-.001.001-.02-.019-.011-.012-.03-.028-.022-.024-.096-.088-.021-.022-.071-.064-.011-.012-.071-.061-.014-.014-.056-.048-.009-.008-.16-.135-.039-.032-.111-.089-.29-.217-.367-.241-.091-.055-.023-.012-.118-.068-.046-.023-.067-.035-.063-.032-.195-.091-.18-.073-.041-.014-.192-.064-.067-.018-.039-.01-.137-.031-.054-.011-.084-.013-.096-.011-.029-.001-.064-.005-.021-.001h-.078l-.034.001-.049.001-.032.002-.027.002-.063.008-.012.001-.063.011-.057.012-.093.028-.037.011-.155.068-.03.016-.125.082-.148.131-.067.072-.014.016-.051.066-.104.161-.053.099-.012.026-.011.02-.022.052-.089.239-.055.203-.021.096-.008.042-.023.135-.009.061-.001.017-.009.066-.001.019-.009.08-.001.024-.008.084-.001.023-.002.035v.013l-.002.043v.016l-.004.058-.001.085-.001.043v.121l.001.044v.037l.005.15.007.121.006.074.001.02.005.046v.017l.005.043.002.031.009.088.005.041.004.032.014.108.004.029.014.095.002.025.013.083.011.06.006.041.026.138.006.032.013.065.04.191.014.068.026.112.012.047.007.028-.042.012-.071.022-.069.019-.148.049-.119.04-.042.014-.137.049-.105.04-.243.1-.055.022-.164.073-.2.097-.037.02-.049.025-.022.011-.057.031-.044.023-.112.065-.133.08-.146.095-.057.041-.069.047-.118.089-.098.079-.015.016-.088.074-.025.024-.075.071-.025.025-.039.04-.023.024-.014.014-.043.05-.013.012-.042.052-.113.149c-.079.118-.146.243-.203.383zm7.502-9.236c5.808 0 10.515-.968 10.515-2.162s-4.707-2.162-10.515-2.162c-5.808 0-10.515.968-10.515 2.162s4.707 2.162 10.515 2.162zm0-14.656c-.04 0-11.421-.89-11.8 12.373h.117c.049-1.055 1.168-1.442 1.168-1.442s2.103-1.562 10.515-1.562 10.515 1.562 10.515 1.562c.958.311.935 1.321.935 1.321l.117.12c-.467-13.142-11.567-12.373-11.567-12.373zm-6.949 24.299l.021-.101.103-.233.095-.139.053-.066.06-.067.019-.018.022-.023.022-.023.018-.019.043-.041.015-.014.047-.042.049-.042.089-.071.112-.084.213-.143.158-.095.071-.041.068-.035.06-.031.071-.037.04-.02.117-.056.301-.131.082-.031.106-.042.025-.008.067-.025.032-.011.081-.028.157-.054.178-.055.057-.017.026-.007h.001l.011.036.029.094.05.157.032.096.005.017.02.061.032.093.079.22.013.038.091.245.193.479.063.15.056.127.036.084.012.026.008.017-.011.024-.016.037-.055.125-.172.412-.141.363-.04.106-.014.04-.055.149-.02.06-.055.156-.02.06-.007.025-.025.072-.07.217-.027.09-.011.036v.001l-.091-.028-.053-.016-.106-.035-.379-.137-.089-.035-.216-.092-.183-.086-.061-.031-.067-.034-.056-.03-.048-.025-.148-.084-.065-.038-.231-.151-.039-.026-.096-.071-.126-.101-.015-.014-.091-.078-.023-.022-.008-.01-.027-.025-.011-.011-.021-.022-.015-.016-.019-.018-.051-.056-.008-.008-.029-.034-.083-.106-.147-.251-.027-.068-.007-.025-.021-.077-.007-.038-.006-.05v-.014l.001-.059.004-.038zm2.884 4.549l.001-.024.001-.048.001-.079.002-.041v-.017l.002-.031v-.014l.001-.028.007-.091v-.022l.008-.082.001-.017.006-.062.001-.016.006-.055.007-.059.004-.031.016-.119.002-.022.012-.076.011-.071.008-.05.029-.159.008-.048.033-.155.007-.035.028-.129.019-.079.008-.032.025.005.056.012.145.032.048.01.047.008.144.029.046.008.061.011.018.002.057.011.022.002.088.016.034.005.127.02.047.007.117.017.043.006.051.007.012.001.106.014.032.004.037.005.013.001.044.006.067.007.089.011.029.002.036.004.044.005.016.001.046.005.023.002.072.007.026.001.095.01.036.004h.017l.015.024.057.082.234.326.05.066.196.261.021.026.074.096.027.032.114.143.032.037.111.137.034.04.006.005.091.109.029.034.04.046.007.006.035.042.008.007.048.056.019.018.019.02.016.019-.009.011-.027.026-.041.038-.007.008-.018.016-.008.01-.032.029-.018.018-.071.065-.012.012-.057.05-.015.014-.058.052-.152.127-.036.031-.111.089-.271.202-.169.114-.123.079-.105.062-.088.049-.02.011-.058.032-.023.011-.039.019-.029.017-.106.05-.14.061-.201.073-.077.024-.157.041-.057.011-.082.013-.016.002-.075.008-.035.001-.041.001h-.054l-.04-.001h-.012l-.043-.004-.089-.014-.065-.018-.082-.032-.125-.084-.02-.02-.034-.035-.009-.008-.019-.024-.02-.024-.055-.082-.105-.217-.05-.143-.023-.083-.022-.091-.005-.029-.022-.115-.005-.034-.016-.108-.005-.044-.006-.059-.009-.115-.002-.036v-.014l-.002-.031v-.017l-.002-.038-.001-.101-.001-.053v-.044zm3.335-.998l-.033-.041-.127-.167-.028-.036-.051-.07-.021-.028v-.001l.303.011.175.002.046.001.039.001h.064l.272.001h.175l.023-.001h.096l.033-.001.027-.001h.04l.068-.001.044-.001h.015l.04-.002h.04l.023-.001.023-.001h.022l.063-.004h.04l.055-.004.036-.001h.016l-.047.064-.112.153-.168.226-.015.017-.058.078-.02.024-.076.097-.029.035-.116.143-.032.036-.107.129-.032.036-.012.012-.034.04-.02.022-.021-.024-.008-.007-.033-.038-.008-.008-.029-.034-.008-.007-.027-.032-.007-.006-.093-.111-.021-.024-.078-.094-.018-.019-.07-.088-.02-.023-.049-.06-.148-.19zm1.129 1.188l.021-.022.068-.08.018-.018.042-.05.011-.011.042-.053.009-.01.036-.043.117-.144.042-.052.126-.162.023-.03.144-.19.093-.125.213-.299.067-.095.077-.113.041-.061.021-.031.092-.01.023-.002.04-.004.037-.004.053-.006h.014l.056-.007.083-.008.28-.035.034-.005.132-.019.043-.005.122-.019.03-.005.09-.016.025-.002.068-.012.019-.002.053-.011.019-.002.047-.008.152-.029.016-.002.067-.013.172-.036.056-.012.067-.014.021-.005.076-.018.04-.01h.001l.006.022.009.038.025.112.012.056.041.204.007.041.025.136.007.048.009.064.002.016.012.086.005.034.014.112.015.155.005.043v.01l.004.047.001.02.006.068.006.117.004.118v.198l-.001.036v.026l-.001.025v.017l-.002.041v.016l-.004.055-.001.023-.007.089-.001.017-.007.061v.013l-.008.058-.001.017-.007.049-.019.112-.005.029-.019.093-.053.199-.074.199-.039.082-.028.056-.092.138-.026.031-.007.007-.036.037-.009.01-.023.022-.119.079-.105.04-.049.011-.037.007-.016.001-.042.005-.02.001-.061.002h-.049l-.033-.002h-.022l-.041-.004-.09-.013-.014-.002-.098-.019-.07-.018-.133-.04-.272-.108-.095-.046-.061-.03-.046-.023-.013-.006-.035-.019-.047-.025-.152-.088-.229-.147-.051-.037-.069-.047-.154-.114-.037-.03-.209-.167-.062-.052-.012-.012-.126-.108-.011-.011-.036-.032-.013-.012-.056-.05-.013-.013-.051-.047-.018-.018-.078-.073-.027-.028-.025-.023-.008-.01-.015-.014-.001-.001.013-.014.029-.034zm3.253-3.904l-.146-.345-.085-.197-.043-.092-.04-.088-.015-.032.006-.016.019-.04.057-.13.182-.431.133-.339.049-.13.065-.181.014-.041.058-.166.027-.08.006-.02.022-.066.069-.216.02-.067.033.01.046.014.041.012.116.037.16.054.02.006.056.02.029.01.072.028.032.011.085.034.057.022.182.077.16.072.114.054.074.038.06.03.02.01.05.028.048.025.169.099.183.118.154.109.127.1.064.054.061.055.015.016.046.043.016.017.023.025.036.038.026.026.077.095.076.109.054.094.012.024.039.093.007.023.021.078.006.037.004.038v.073l-.004.038-.021.097-.06.153-.019.041-.104.162-.063.082-.03.036-.03.035-.012.011-.039.041-.033.032-.016.018-.065.06-.012.012-.083.072-.062.05-.099.076-.15.107-.178.114-.14.082-.063.036-.041.02-.104.055-.41.192-.278.113-.112.041-.041.014-.116.042-.058.018-.123.041-.049.016-.026.007h-.002l-.044-.142-.063-.189-.005-.017-.021-.058-.025-.074-.037-.106-.105-.284-.127-.324zm.169-5.144v.048l-.002.086-.002.06v.017l-.004.046v.014l-.002.025v.013l-.001.023-.001.023-.006.071-.002.028-.008.084-.001.023-.009.079-.001.02-.008.07-.005.037-.019.137-.007.046-.012.078-.002.018-.011.059-.008.048-.028.145-.012.066-.03.142-.007.038-.016.07-.008.035-.005.018-.029-.007-.053-.012-.025-.005-.113-.026-.075-.016-.055-.011-.168-.035-.071-.014-.063-.011-.145-.026-.049-.008-.014-.002-.063-.011-.025-.004-.085-.014-.03-.004-.122-.019-.048-.006-.109-.017-.04-.005-.058-.007-.096-.013-.03-.004-.039-.005-.044-.006-.021-.001-.06-.007-.021-.002-.077-.008-.021-.002-.098-.011-.04-.004h-.007l-.023-.026-.051-.074-.22-.31-.171-.233-.058-.076-.014-.018-.074-.096-.023-.03-.112-.144-.033-.038-.133-.165-.04-.048-.029-.032-.106-.127-.036-.042-.014-.013-.041-.049-.015-.016-.05-.058-.025-.028-.001-.001.012-.011.025-.024.008-.01.088-.083.019-.019.077-.071.021-.022.055-.048.018-.017.042-.036.009-.011.136-.115.02-.018.155-.127.126-.1.176-.129.32-.213.1-.059.093-.054.047-.024.072-.037.072-.037.145-.065.082-.032.136-.05.107-.034.083-.022.091-.019.018-.002.091-.013.039-.004.046-.002.057-.002.036.001.032.001.067.006.062.012.137.049.02.01.06.038.051.043.008.01.04.042.012.011.036.046.053.079.019.035.082.169.034.094.008.028.033.106.006.026.035.15.006.032.02.121.007.042.008.065.012.119.004.037v.01l.004.043v.012l.005.068v.017l.002.06v.028l.001.03v.064l.001.034-.001.041v.013zm-3.271.986l.03.038.137.183.037.049.018.025-.183-.008h-.02l-.065-.002-.023-.001h-.05l-.032-.002h-.023l-.029-.001-.032-.001h-.07200000000000001l-.027-.001-.032-.001h-.093l-.025-.001h-.047l-.133-.001-.137.001h-.047l-.026.001h-.093l-.033.001-.026.001h-.039l-.065.001-.044.001h-.014l-.039.002h-.014l-.034.001h-.036l-.021.001-.021.001-.06.002h-.019l-.071.005-.033.001h-.013l.013-.017.034-.047.09-.12.035-.046.14-.181.05-.064.019-.02.058-.074.023-.026.074-.093.027-.031.089-.107.027-.031.029-.032.086-.1.029-.034.008-.008.034-.038.02-.023.023.026.008.007.039.046.035.037.026.03.09.107.026.028.074.09.021.024.079.099.019.022.065.083.154.199zm-4.152 1.468l-.035-.114-.015-.046.063-.013.125-.029.044-.008.044-.01.145-.03.061-.011.082-.016.018-.002.09-.017.027-.004.095-.018.028-.004.134-.022.28-.041.018-.002.063-.008.036-.005h.002l-.051.082-.098.162-.207.351-.158.281-.051.094-.055.102-.011.022-.096.179-.033.062-.032.061-.007.013-.048.094-.008.019-.019.035-.006.013-.008-.018-.026-.061-.07-.175-.023-.062-.09-.237-.037-.103-.046-.13-.011-.034-.036-.105-.015-.046-.021-.065-.043-.136zm1.248 4.297l-.051-.006-.025-.002-.096-.013-.048-.005-.04-.006-.034-.005-.106-.016-.032-.004-.091-.016-.02-.001-.077-.013-.023-.004-.064-.011-.054-.01-.169-.031-.072-.013-.137-.029-.037-.006-.079-.018-.05-.011.018-.058.037-.12.044-.138.023-.07.013-.043.036-.101.011-.032.042-.121.029-.08.086-.233.078-.198.016-.043.032-.078.018-.042.018.034.028.054.014.028.029.055.005.012.096.18.029.056.112.208.03.055.112.199.225.384.035.061.1.161.04.065.02.032-.033-.004-.039-.005zm4.385-1.221l-.076.136-.174.304-.036.065-.11.184-.192.312-.129.205-.043.066-.016.025-.134.01h-.012l-.036.004h-.012l-.051.004h-.013l-.067.005-.104.005-.081.004-.018.001-.036.001-.037.002-.039.001-.064.001-.033.001h-.013l-.025.001-.026.001h-.026l-.032.002h-.058l-.034.001-.05.001h-.028l-.032.001-.047.001h-.092l-.127.001-.236-.001h-.076l-.046-.001h-.033l-.033-.001h-.027l-.04-.001-.062-.001-.037-.001-.03-.001h-.014l-.04-.001h-.014l-.036-.001-.111-.004h-.02l-.058-.004h-.019l-.053-.004h-.018l-.033-.001h-.016l-.032-.002h-.015l-.029-.002-.029-.001-.069-.005h-.027l-.026-.002-.075-.005-.046-.004-.025-.035-.07-.108-.086-.133-.064-.099-.117-.19-.098-.16-.102-.171-.025-.046-.107-.185-.026-.047-.137-.245-.025-.046-.11-.205-.043-.082-.011-.022-.035-.066-.013-.028-.046-.089-.011-.022-.032-.062-.011-.024-.023-.044-.021-.043-.046-.094-.058-.124-.021-.043-.011-.023.09-.189.071-.147.037-.076.013-.028.037-.072.009-.02.049-.095.013-.025.049-.094.014-.029.044-.082.007-.017.117-.214.028-.053.175-.309.162-.277.146-.238.201-.316.064-.099.022-.034.011-.017.022-.001.041-.004.086-.007.022-.001.035-.002.036-.001.062-.005.026-.001.027-.002.028-.001h.014l.029-.002h.014l.046-.004h.015l.068-.004h.016l.056-.002.019-.001h.02l.063-.004h.023l.023-.001h.051000000000000004l.056-.002.03-.001.033-.001.252-.004h.249l.077.001h.08l.039.001.028.001h.04l.069.001.06.002.027.001h.026l.026.001h.013l.033.001.083.002.04.002h.016l.036.002h.016l.033.001.032.001.016.001.072.005.069.004.05.002.026.002h.012l.025.001.023.002.089.006h.011l.062.006.03.002h.007l.006.01.014.02.065.101.263.419.214.357.103.178.028.052.134.238.028.054.113.208.035.066.008.018.047.085.009.022.043.082.013.025.039.074.007.017.03.056.009.022.019.036.007.013.039.077.063.13.02.041.008.018-.009.022-.021.043-.068.142-.065.132-.016.035-.009.02-.029.054-.008.02-.046.086-.013.029-.058.109-.029.059-.09.168-.019.035-.083.153-.019.034zm-.811-1.141v-.043l-.001-.022-.001-.017-.001-.043-.002-.024-.011-.082-.019-.095-.063-.197-.04-.093-.013-.026-.046-.084-.078-.117-.061-.076-.021-.023-.03-.032-.025-.025-.023-.022-.007-.008-.081-.068c-.09-.068-.186-.127-.296-.177l-.125-.047-.058-.017-.097-.022-.057-.01h-.012l-.049-.007h-.009l-.033-.002h-.015l-.019-.001h-.099l-.032.002-.03.001-.076.01-.088.017-.048.011-.148.049-.122.056-.041.02-.069.042-.103.073-.062.052-.018.018-.05.048-.043.047-.014.014-.053.065-.099.15-.097.207-.053.18-.018.091-.001.016-.011.076-.001.029-.002.04v.023l-.001.034.001.041.001.037v.013l.006.07.009.067.028.131.015.056.061.162.025.05.007.017.032.058.085.129.063.08.021.025.009.008.02.022.036.036.019.019.067.056.056.046.217.127.15.061.126.035.019.002.091.017.041.004.036.004.023.001.064.002.061-.001.03-.001.02-.001.072-.008.07-.011.054-.012.107-.03c.386-.132.667-.406.823-.775l.057-.169.019-.079.004-.019.014-.09.005-.032.002-.044.001-.024.001-.016.001-.055zm2.05-1.592l-.05.142-.107.286-.022.06-.088.219-.034.083-.015.038-.001.001-.009-.017-.013-.026-.037-.072-.027-.054-.09-.168-.02-.038-.076-.138-.013-.025-.062-.112-.023-.043-.06-.107-.132-.229-.062-.109-.159-.263-.07-.117-.02-.031-.012-.018v-.001l.046.006.057.008.028.002.082.012.048.007.041.006.133.022.029.004.075.013.027.004.098.018.018.002.069.012.054.01.154.031.061.012.171.036.049.011.078.018.03.006.016.005-.015.048-.026.082-.047.147-.013.038-.014.046-.037.105-.009.031zm.1 3.427l.061.185.021.066.008.026-.025.007-.055.012-.157.035-.048.01-.189.038-.065.012-.079.016-.027.004-.092.017-.033.005-.112.019-.044.006-.122.019-.037.006-.22.03-.061.007-.025.004h-.005l.082-.132.104-.174.042-.073.164-.282.026-.047.162-.291.055-.102.011-.022.109-.204.033-.064.041-.077.013-.028.026-.048.007-.017.02-.038.009.023.026.059.067.16.028.071.141.362.051.141.014.043.061.171.015.047zm-4.018-6.404l-.014.016-.05.058-.013.014-.037.044-.012.012-.034.04-.096.114-.032.037-.048.058-.125.155-.042.052-.124.16-.033.041-.099.131-.265.363-.033.044-.081.118-.046.065-.039.004-.032.004h-.015l-.037.005-.023.001-.064.008-.036.002-.028.004-.093.012-.071.007-.056.007-.043.005-.035.005-.114.017-.04.005-.127.019-.032.004-.119.019-.025.002-.076.013-.019.002-.064.011-.044.008-.043.007-.124.023-.065.012-.048.01-.161.032-.062.013-.065.013-.097.023-.025.005-.047.011-.025.005-.009-.04-.014-.058-.032-.144-.008-.042-.041-.198-.009-.056-.027-.147-.008-.05-.002-.02-.009-.059-.002-.02-.009-.065-.002-.017-.015-.118-.004-.032-.006-.048v-.014l-.006-.052-.002-.024-.006-.067-.001-.018-.007-.08-.001-.022-.005-.077-.001-.03-.002-.034-.001-.04v-.013l-.001-.035-.001-.077v-.135l.001-.041v-.025l.002-.068.004-.062v-.013l.004-.046.002-.041.012-.118.007-.062.007-.05.021-.127.029-.133.008-.037.033-.115.062-.166.104-.196.036-.049.037-.048.014-.013.027-.026.026-.025.109-.071.102-.038.074-.017.075-.01.03-.002.036-.001h.058l.023.001h.028l.069.007.048.006.111.02.015.002.123.031.077.023.196.072.075.03.134.06.09.046.064.034.046.024.122.07.016.008.114.07.284.19.276.205.154.125.019.018.134.113.053.046.009.011.055.048.018.017.083.076.025.025.089.083.035.034-.023.026-.069.077zm-10.047-2.553l-1.159-.156.273-2.143 3.823.515-.273 2.144-.927-.125-1.535 12.03 2.734.732-1.841 5.204-4.634-.625-.476-5.516 2.479-.029 1.535-12.031z" sketch:type="MSShapeGroup" fill="#5C069A"/></svg>