<svg width="82" height="111" viewBox="0 0 82 111" xmlns="http://www.w3.org/2000/svg" xmlns:sketch="http://www.bohemiancoding.com/sketch/ns"><title>Shape Copy</title><desc>Created with Sketch.</desc><path d="M81.271 40.557c-.133 1.576.503 2.983-1.414 2.785-.003 0-.778-.032-.803-.025-1.955 12.91-9.303 61.486-9.303 61.486-26.879 12.921-50.267 0-50.267 0s-.007-1.773 0-1.795c.202-1.992 2.751-8.894 2.793-8.973l.457-1.414c-.003-.007-5.341-1.432-5.344-1.457.042-.057-1.403-10.753-1.396-10.767.01.029 2.803-24.08 2.793-24.047.01.018 2.691.269 2.684.269 0 .014.977-8.517.97-8.524.007.043-12.102-1.69-12.102-1.651l-.478-3.069s-.894.144-1.546.054c-.656-.09-1.026-.337-1.047-3.589-.698-7.218 2.838-39.84 37.002-39.84 35.26 0 37.553 33.975 37.002 40.557zm-59.067 33.695c-.073.183-.119.377-.175.578l-.052.266-.014.093-.014.133-.017.23v.20500000000000002l.003.083.003.122.01.104.031.24.035.194.105.402c.168.52.405.976.684 1.382.663.98 1.511 1.744 2.461 2.426.23.169.471.319.712.477l.478.291.237.136.286.158.049.025.119.065.038.018.227.115.056.032.112.054.094.047.541.258.524.226.398.165.129.047.265.108.087.029.206.079.07.022.157.057.44.151.408.133.143.043.175.054.091.025-.035.14-.045.201-.017.09-.094.413-.031.162-.098.47-.024.144-.007.05-.045.226-.017.129-.077.459-.021.136-.003.032-.028.187-.007.086-.035.244-.052.456-.052.578v.032l-.01.158-.003.068-.014.194-.014.352-.01.395v.129l-.003.093.003.136v.079l.003.136v.075l.003.083v.072l.01.169v.05l.01.169v.036l.01.133v.032l.007.115.007.079.028.255.007.083.042.319.035.237.007.057.035.194.094.441.035.162.056.212.094.305.031.111.115.319.189.449.038.072.066.136.028.057.094.172.279.434.216.28.101.111.038.039.059.065.063.061.07.068.021.025.101.09.293.226c.206.147.44.269.684.373l.328.118.339.086.157.032.175.025.035.004.101.011.094.011.272.014.126.004h.20600000000000002l.265-.018.084-.004.293-.032.258-.039.15-.025.461-.108.108-.025.244-.068.531-.179.126-.043.569-.23.579-.269.195-.104.209-.108.133-.068.353-.201.084-.047.339-.205c.356-.233.716-.459 1.058-.707l.855-.646.339-.273.073-.068.433-.363.038-.036.129-.111.042-.043.202-.176.035-.039.202-.179.073-.072.255-.24.073-.075.07-.068.024-.025.059-.057.035-.032.031.029.087.086.105.097.021.025.056.05.031.032.042.039.024.025.227.212.045.047.161.147.038.036.119.108.017.018.374.327.084.075.262.219.031.032.14.115.513.409c.244.187.489.373.74.553.283.205.579.395.876.585l.363.223.112.061.311.179.108.054.115.065.119.061.154.079.185.093.429.197.499.201.195.072c.171.072.363.115.545.176l.161.043.063.014.206.054.304.061.063.011.286.047.119.011.223.022.066.004.087.007h.133l.154.004h.08l.129-.007h.042l.129-.007.098-.011.241-.032.318-.068.091-.018.29-.09.213-.086.342-.169.087-.05c.147-.09.283-.187.415-.287l.143-.122.031-.032.091-.086.042-.043.073-.079.084-.083.161-.197.042-.047.14-.19.269-.424.136-.251.031-.068.07-.147.045-.097.091-.215.129-.341.08-.251.077-.244.052-.187.063-.262.066-.301.017-.104.08-.452.024-.172.003-.047.028-.194.035-.337.031-.388.003-.104.014-.208.003-.05.003-.108.007-.129v-.187l.003-.162v-.45699999999999996l-.01-.373-.014-.355-.014-.194v-.032l-.01-.136v-.029l-.01-.147-.007-.086-.007-.079-.028-.262v-.025l-.017-.151-.063-.549-.059-.402-.014-.104-.045-.284-.01-.083-.042-.237-.031-.176-.119-.596-.031-.162-.108-.47-.035-.162-.021-.075.003-.011.066-.018.136-.043.457-.147.335-.118.112-.039.052-.014.192-.072.063-.022.276-.104.098-.036.363-.144.663-.276.625-.287.349-.172.094-.05.227-.115.251-.136.108-.054.426-.24.433-.266c.265-.172.534-.348.792-.535l.489-.373.272-.226.248-.215.077-.075.073-.068.206-.201.154-.158.042-.039.098-.111.028-.025.122-.14.073-.09.209-.262.304-.438.206-.345.073-.147.07-.144.056-.122.115-.291c.066-.162.101-.341.154-.52l.042-.219.028-.194v-.039l.017-.158.003-.09v-.21500000000000002l-.003-.075v-.083l-.024-.219-.017-.144-.084-.398-.119-.37c-.119-.301-.248-.581-.405-.843l-.08-.133-.206-.309-.251-.327-.199-.233-.08-.09-.08-.086-.112-.118-.115-.115-.049-.05-.182-.169-.038-.043-.143-.126-.168-.144-.286-.23-.119-.097-.367-.276c-.276-.197-.566-.38-.855-.563l-.349-.212-.094-.05-.412-.23-.126-.065-.189-.097-.286-.144-.342-.169-.656-.294-.468-.194c-.489-.208-1.005-.384-1.525-.563l-.646-.208-.213-.065-.087-.025h-.003l.028-.118.07-.301.017-.083.091-.409.024-.122.038-.208.042-.226.007-.05.049-.251.01-.079.045-.258.007-.072.063-.406.021-.147.021-.169.007-.054.028-.219.003-.061.035-.287.035-.388.007-.108.024-.273.003-.065.007-.108v-.039l.007-.083v-.039l.007-.14v-.05l.01-.176.007-.28v-.616l-.003-.122v-.043l-.003-.122v-.065l-.017-.341-.017-.244v-.057l-.014-.136-.003-.054-.014-.14-.052-.438-.031-.233-.031-.194-.08-.409-.017-.086-.147-.589-.105-.33-.017-.057-.129-.359c-.112-.262-.223-.524-.363-.761l-.136-.233-.244-.352-.189-.233-.07-.079-.042-.043-.105-.111-.042-.043-.098-.086-.122-.108-.297-.223c-.175-.111-.36-.212-.559-.301l-.335-.126-.415-.104-.154-.029-.202-.029h-.045l-.202-.018-.094-.007h-.3l-.077.004h-.056l-.213.014-.164.014-.098.011-.248.039-.042.007-.339.065-.237.061-.063.014-.161.043-.304.097-.227.075-.433.162c-.356.151-.705.305-1.033.481l-.293.154-.07.032-.496.287-.332.205-.471.305-.272.194-.318.219-.576.434-.374.298-.105.09-.457.38-.035.036-.168.14-.059.057-.223.197-.073.068-.265.24-.073.068-.077.079-.265.248-.021.025-.059.054-.038.043-.108.104-.028.025-.003.004-.059-.057-.031-.036-.091-.083-.066-.072-.286-.262-.063-.065-.213-.19-.031-.036-.213-.183-.042-.043-.168-.144-.028-.025-.478-.402-.115-.097-.332-.266c-.286-.219-.572-.438-.866-.65-.353-.255-.723-.488-1.096-.721l-.272-.165-.07-.036-.353-.205-.136-.068-.199-.104-.189-.097-.583-.273-.538-.219-.122-.043c-.182-.075-.38-.126-.572-.19l-.199-.054-.115-.029-.408-.093-.161-.032-.251-.039-.286-.032-.087-.004-.192-.014-.063-.004h-.23399999999999999l-.101.004-.147.004-.094.007-.08.007-.189.025-.035.004-.189.032-.171.036-.279.083-.112.032c-.157.068-.325.118-.464.205l-.091.047-.374.244c-.161.115-.307.251-.443.391l-.199.215-.042.047-.154.197-.311.481-.157.294-.035.079-.031.061-.066.154c-.094.226-.185.467-.265.714l-.164.607-.063.287-.024.126-.07.402-.028.183-.003.05-.028.197-.003.057-.028.24-.003.072-.024.251-.003.068-.007.104v.039l-.007.129v.047l-.01.172-.003.255-.003.129v.362l.003.133v.111l.014.449.021.363.017.223.003.061.014.136v.05l.014.129.007.093.028.262.014.122.01.097.042.323.01.086.042.284.007.075.038.248.031.179.017.122.077.413.017.097.038.194.119.571.042.205.077.334.035.14.021.083-.126.036-.213.065-.206.057-.443.147-.356.118-.126.043-.408.147-.314.118-.726.298-.164.065-.489.219-.597.291-.112.061-.147.075-.066.032-.171.093-.133.068-.335.194-.398.24-.436.284-.171.122-.206.14-.353.266-.293.237-.045.047-.262.223-.073.072-.223.212-.073.075-.115.118-.07.072-.042.043-.129.151-.038.036-.126.154-.339.445c-.237.352-.436.725-.607 1.145zm22.414-27.593c17.353 0 31.417-2.893 31.417-6.46 0-3.568-14.064-6.46-31.417-6.46s-31.417 2.893-31.417 6.46c0 3.568 14.064 6.46 31.417 6.46zm0-43.788c-.119 0-34.122-2.66-35.257 36.968h.349c.147-3.151 3.491-4.307 3.491-4.307s6.283-4.666 31.417-4.666c25.133 0 31.417 4.666 31.417 4.666 2.862.93 2.793 3.948 2.793 3.948s.349.377.349.359c-1.396-39.265-34.558-36.968-34.558-36.968zm-20.763 72.598l.063-.301c.08-.258.178-.488.307-.696l.283-.416.157-.197.178-.201.056-.054.066-.068.066-.068.052-.057.129-.122.045-.043.14-.126.147-.126.265-.212.335-.251c.206-.151.419-.287.635-.427l.471-.284.213-.122.202-.104.178-.093.213-.111.119-.061.349-.169.901-.391.244-.093.318-.126.073-.025.199-.075.094-.032.241-.083.468-.162.531-.165.171-.05.077-.022h.003l.031.108.087.28.15.47.094.287.014.05.059.183.094.276.237.657.038.115.272.732c.192.477.377.962.576 1.432l.189.449.168.38.108.251.035.079.024.05-.031.072-.049.111-.164.373-.513 1.231c-.15.355-.279.721-.422 1.084l-.119.316-.042.118-.164.445-.059.179-.164.467-.059.179-.021.075-.073.215-.209.65-.08.269-.031.108v.004l-.272-.083-.157-.047-.318-.104c-.384-.133-.768-.255-1.131-.409l-.265-.104-.646-.276-.548-.258-.182-.093-.199-.1-.168-.09-.143-.075-.443-.251-.195-.115c-.234-.147-.468-.294-.691-.452l-.115-.079-.286-.212-.377-.301-.045-.043-.272-.233-.07-.065-.024-.029-.08-.075-.031-.032-.063-.065-.045-.047-.056-.054-.154-.169-.024-.025-.087-.1-.248-.316c-.164-.23-.321-.474-.44-.75l-.08-.205-.021-.075-.063-.23-.021-.115-.017-.151v-.043l.003-.176.01-.115zm8.615 13.592l.003-.072.003-.144.003-.237.007-.122v-.05l.007-.093v-.043l.003-.083.021-.273v-.065l.024-.244.003-.05.017-.187.003-.047.017-.165.021-.176.01-.093.049-.355.007-.065.035-.226.031-.212.024-.151.087-.474.024-.144.098-.463.021-.104.084-.384.056-.237.024-.097.073.014.168.036.433.097.143.029.14.025.429.086.136.025.182.032.052.007.171.032.066.007.262.047.101.014.38.061.14.022.349.05.129.018.154.022.035.004.318.043.094.011.112.014.038.004.133.018.199.022.265.032.087.007.108.011.133.014.049.004.136.014.07.007.216.022.077.004.283.029.108.011h.052000000000000005l.045.072.171.244c.223.33.468.646.698.973l.15.197.586.779.063.079.22.287.08.097.342.427.094.111.332.409.101.118.017.014.272.327.087.1.119.136.021.018.105.126.024.022.143.169.056.054.056.061.049.057-.028.032-.08.079-.122.115-.021.025-.052.047-.024.029-.094.086-.052.054-.213.194-.035.036-.171.151-.045.043-.175.154-.454.38-.108.093-.332.266c-.269.205-.534.406-.81.603l-.506.341-.367.237-.314.187-.262.147-.059.032-.175.097-.07.032-.115.057-.087.05-.318.151-.419.183c-.195.083-.398.151-.6.219l-.23.072-.468.122-.171.032-.244.039-.049.007-.223.025-.105.004-.122.004h-.161l-.119-.004h-.035l-.129-.011-.265-.043-.195-.054-.244-.097c-.14-.065-.255-.162-.374-.251l-.059-.061-.101-.104-.028-.025-.056-.072-.059-.072-.164-.244c-.126-.201-.22-.416-.314-.65l-.15-.427-.07-.248-.066-.273-.014-.086-.066-.345-.014-.1-.049-.323-.014-.133-.017-.176-.028-.345-.007-.108v-.043l-.007-.093v-.05l-.007-.115-.003-.301-.003-.158v-.133zm9.963-2.983l-.098-.122-.38-.499-.084-.108-.154-.208-.063-.083v-.004l.904.032.524.007.136.004.115.004h.192l.813.004h.52l.07-.004h.28700000000000003l.098-.004.08-.004h.119l.202-.004.133-.004h.045l.119-.007h.119l.07-.004.07-.004h.066l.189-.011h.118l.164-.011.108-.004h.049l-.14.19-.335.456-.503.675-.045.05-.175.233-.059.072-.227.291-.087.104-.346.427-.094.108-.321.384-.094.108-.035.036-.101.118-.059.065-.063-.072-.024-.022-.098-.115-.024-.025-.087-.1-.024-.022-.08-.097-.021-.018-.279-.33-.063-.072-.234-.28-.052-.057-.209-.262-.059-.068-.147-.179-.443-.567zm3.372 3.55l.063-.065.202-.24.052-.054.126-.151.031-.032.126-.158.028-.029.108-.129.349-.431.126-.154.377-.485.07-.09.429-.567.279-.373c.213-.298.429-.592.635-.894l.199-.284.23-.337.122-.183.063-.093.276-.029.07-.007.119-.011.112-.011.157-.018h.042l.168-.022.248-.025.838-.104.101-.014.394-.057.129-.014.363-.057.091-.014.269-.047.073-.007.202-.036.056-.007.157-.032.056-.007.14-.025.454-.086.049-.007.199-.039.513-.108.168-.036.199-.043.063-.014.227-.054.119-.029h.003l.017.065.028.115.073.334.035.169.122.61.021.122.073.406.021.144.028.19.007.047.035.258.014.1.042.334.045.463.014.129v.029l.01.14.003.061.017.205.017.348.01.352v.5920000000000001l-.003.108v.079l-.003.075v.05l-.007.122v.047l-.01.165-.003.068-.021.266-.003.05-.021.183v.039l-.024.172-.003.05-.021.147-.056.334-.014.086-.056.276c-.052.201-.094.402-.157.596-.066.205-.14.409-.22.596l-.115.244-.084.169c-.087.144-.178.28-.276.413l-.077.093-.021.022-.108.111-.028.029-.07.065c-.112.086-.223.176-.356.237l-.314.118-.147.032-.112.022-.049.004-.126.014-.059.004-.182.007h-.147l-.098-.007h-.066l-.122-.011-.269-.039-.042-.007-.293-.057-.209-.054-.398-.118c-.279-.097-.552-.205-.813-.323l-.283-.136-.182-.09-.136-.068-.038-.018-.105-.057-.14-.075-.454-.262-.684-.438-.154-.111-.206-.14-.461-.341-.112-.09-.625-.499-.185-.154-.035-.036-.377-.323-.031-.032-.108-.097-.038-.036-.168-.151-.038-.039-.154-.14-.052-.054-.234-.219-.08-.083-.073-.068-.024-.029-.045-.043-.003-.004.038-.043.087-.1zm9.718-11.665l-.436-1.03-.255-.589-.129-.276-.119-.262-.045-.097.017-.047.056-.118.171-.388.545-1.289.398-1.012.147-.388.195-.542.042-.122.175-.495.08-.24.017-.061.066-.197.206-.646.059-.201.098.029.136.043.122.036.346.111.478.162.059.018.168.061.087.029.216.083.094.032.255.1.171.065.545.23.478.215.342.162.22.115.178.09.059.029.15.083.143.075.506.294.548.352.461.327.38.298.192.162.182.165.045.047.136.129.049.05.07.075.108.115.077.079.23.284.227.327.161.28.035.072.115.276.021.068.063.233.017.111.01.115v.21900000000000003l-.01.115-.063.291c-.049.165-.105.316-.178.456l-.056.122c-.101.169-.199.33-.311.485l-.189.244-.091.108-.091.104-.035.032-.115.122-.098.097-.049.054-.195.179-.035.036-.248.215-.185.151-.297.226-.447.319-.531.341-.419.244-.189.108-.122.061-.311.165c-.391.208-.81.388-1.225.574l-.831.337-.335.122-.122.043-.346.126-.175.054-.367.122-.147.047-.077.022h-.007l-.133-.424-.189-.563-.014-.05-.063-.172-.073-.223-.112-.316-.314-.847-.38-.969zm.506-15.369v.144l-.007.258-.007.179v.05l-.01.136v.043l-.007.075v.039l-.003.068-.003.068-.017.212-.007.083-.024.251-.003.068-.028.237-.003.061-.024.208-.014.111-.056.409-.021.136-.035.233-.007.054-.031.176-.024.144-.084.434-.035.197-.091.424-.021.115-.049.208-.024.104-.014.054-.087-.022-.157-.036-.073-.014-.339-.079-.223-.047-.164-.032-.503-.104-.213-.043-.189-.032-.433-.079-.147-.025-.042-.007-.189-.032-.073-.011-.255-.043-.091-.011-.363-.057-.143-.018-.325-.05-.119-.014-.175-.022-.286-.039-.091-.011-.115-.014-.133-.018-.063-.004-.178-.022-.063-.007-.23-.025-.063-.007-.293-.032-.119-.011h-.021l-.07-.079-.154-.223c-.213-.312-.436-.617-.656-.926l-.51-.696-.175-.226-.042-.054-.22-.287-.07-.09-.335-.431-.098-.115-.398-.492-.119-.144-.087-.097-.318-.38-.108-.126-.042-.039-.122-.147-.045-.047-.15-.172-.073-.083-.003-.004.035-.032.073-.072.024-.029.262-.248.056-.057.23-.212.063-.065.164-.144.052-.05.126-.108.028-.032.405-.345.059-.054.464-.38.377-.298.527-.384c.307-.226.632-.431.956-.635l.3-.176.279-.162.14-.072.216-.111.216-.111.433-.194.244-.097.405-.151.321-.1.248-.065.272-.057.052-.007.272-.039.115-.011.136-.007.171-.007.108.004.094.004.199.018.185.036c.15.043.286.083.408.147l.059.029.178.115.154.129.024.029.119.126.035.032.108.136.157.237.056.104c.094.158.171.33.244.506l.101.28.024.083.098.316.017.079.105.449.017.097.059.363.021.126.024.194.035.355.01.111v.029l.01.129v.036l.014.205v.05l.007.179v.083l.003.09v.191l.003.1-.003.122v.039zm-9.774 2.947l.091.115.408.546.112.147.052.075-.548-.025h-.059l-.195-.007-.07-.004h-.146l-.094-.007h-.07l-.087-.004-.094-.004h-.217l-.08-.004-.094-.004h-.276l-.073-.004h-.14l-.398-.004-.408.004h-.14l-.077.004h-.275l-.098.004-.077.004h-.115l-.195.004-.133.004h-.042l-.115.007h-.042l-.101.004h-.10800000000000001l-.063.004-.063.004-.178.007h-.056l-.213.014-.098.004h-.038l.038-.05.101-.14.269-.359.105-.136.419-.542.15-.19.056-.061.175-.223.07-.079.22-.276.08-.093.265-.319.08-.093.087-.097.258-.298.087-.1.024-.025.101-.115.059-.068.07.079.024.022.115.136.105.111.077.09.269.319.077.083.22.269.063.072.237.294.056.065.195.248.461.596zm-12.406 4.386l-.105-.341-.045-.136.189-.039.374-.086.133-.025.133-.029.433-.09.182-.032.244-.047.052-.007.269-.05.08-.011.283-.054.084-.011.401-.065.838-.122.052-.007.189-.025.108-.014h.007l-.154.244-.293.485-.618 1.048-.471.84-.154.28-.164.305-.031.065-.286.535-.098.187-.094.183-.021.039-.143.28-.024.057-.056.104-.017.039-.024-.054-.077-.183-.209-.524-.07-.187-.269-.707-.112-.309-.136-.388-.031-.1-.108-.312-.045-.136-.063-.194-.129-.406zm3.728 12.838l-.154-.018-.073-.007-.286-.039-.143-.014-.119-.018-.101-.014-.318-.047-.094-.011-.272-.047-.059-.004-.23-.039-.07-.011-.192-.032-.161-.029-.506-.093-.216-.039-.408-.086-.112-.018-.237-.054-.15-.032.052-.172.112-.359.133-.413.07-.208.038-.129.108-.301.031-.097.126-.363.087-.24.258-.696.234-.592.049-.129.094-.233.052-.126.052.1.084.162.042.083.087.165.014.036.286.538.087.169.335.621.091.165.335.596.674 1.149.105.183.3.481.119.194.059.097-.098-.011-.115-.014zm13.101-3.647l-.227.406-.52.908-.108.194-.328.549-.572.933-.384.614-.129.197-.049.075-.401.029h-.035l-.108.011h-.035l-.154.011h-.038l-.199.014-.311.014-.241.011-.052.004-.108.004-.112.007-.115.004-.192.004-.098.004h-.038l-.073.004-.077.004h-.077l-.094.007h-.175l-.101.004-.15.004h-.084l-.094.004-.14.004h-.276l-.38.004-.705-.004h-.227l-.136-.004h-.098l-.098-.004h-.08l-.119-.004-.185-.004-.112-.004-.091-.004h-.042l-.119-.004h-.042l-.108-.004-.332-.011h-.059l-.175-.011h-.056l-.157-.011h-.052l-.098-.004h-.049l-.094-.007h-.045l-.087-.007-.087-.004-.206-.014h-.08l-.077-.007-.223-.014-.136-.011-.073-.104-.209-.323-.258-.398-.192-.294-.349-.567-.293-.477-.304-.51-.073-.136-.321-.553-.077-.14-.408-.732-.073-.136-.328-.614-.129-.244-.031-.065-.105-.197-.038-.083-.136-.266-.031-.065-.094-.187-.031-.072-.07-.133-.063-.129-.136-.28-.175-.37-.063-.129-.031-.068.269-.563.213-.438.112-.226.038-.083.112-.215.028-.061.147-.284.038-.075.147-.28.042-.086.133-.244.021-.05.349-.639.084-.158.524-.922.485-.829.436-.711c.195-.319.398-.632.6-.944l.192-.294.066-.1.031-.05.066-.004.122-.011.258-.022.066-.004.105-.007.108-.004.185-.014.077-.004.08-.007.084-.004h.042l.087-.007h.042l.136-.011h.045l.202-.011h.049l.168-.007.056-.004h.059l.189-.011h.07l.07-.004h.15l.168-.007.091-.004.098-.004.754-.011h.744l.23.004h.23700000000000002l.115.004.084.004h.119l.206.004.178.007.08.004h.077l.077.004h.038l.098.004.248.007.119.007h.049l.108.007h.049l.098.004.094.004.049.004.216.014.206.011.15.007.077.007h.035l.073.004.07.007.265.018h.031l.185.018.091.007h.021l.017.029.042.061.195.301c.265.413.527.829.785 1.253l.639 1.066.307.531.084.154.401.711.084.162.339.621.105.197.024.054.14.255.028.065.129.244.038.075.115.223.021.05.091.169.028.065.056.108.021.039.115.23.189.388.059.122.024.054-.028.065-.063.129-.202.424-.195.395-.049.104-.028.061-.087.162-.024.061-.136.258-.038.086-.175.327-.087.176-.269.502-.056.104-.248.456-.056.1zm-2.423-3.41v-.129l-.003-.065-.003-.05-.003-.129-.007-.072-.031-.244-.056-.284c-.059-.208-.112-.406-.189-.589l-.119-.276-.038-.079-.136-.251-.234-.348-.182-.226-.063-.068-.091-.097-.073-.075-.07-.065-.021-.025-.241-.205c-.269-.205-.555-.38-.883-.528l-.374-.14-.175-.05-.29-.065-.171-.029h-.035l-.147-.022h-.028l-.098-.007h-.045l-.056-.004h-.296l-.094.007-.091.004-.227.029-.262.05-.143.032-.443.147-.363.169-.122.061-.206.126-.307.219-.185.154-.052.054-.15.144-.129.14-.042.043-.157.194-.297.449c-.112.19-.202.402-.29.617-.066.169-.105.352-.157.538l-.052.273-.003.047-.031.226-.003.086-.007.118v.068l-.003.1.003.122.003.111v.039l.017.208.028.201.084.391.045.169c.052.169.115.33.182.485l.073.151.021.05.094.172.255.384.189.24.063.075.028.025.059.065.108.108.056.057.199.169.168.136c.199.144.412.276.649.38.14.065.29.129.447.183l.377.104.056.007.272.05.122.011.108.011.07.004.192.007.182-.004.091-.004.059-.004.216-.025.209-.032.161-.036.321-.09c1.152-.395 1.993-1.213 2.457-2.315.07-.162.115-.33.171-.506l.056-.237.01-.057.042-.269.014-.097.007-.133.003-.072.003-.047.003-.165zm6.126-4.756l-.15.424-.321.854-.066.179-.262.653-.101.248-.045.115-.003.004-.028-.05-.038-.079-.112-.215-.08-.162-.269-.502-.059-.115-.227-.413-.038-.075-.185-.334-.07-.129-.178-.319-.394-.686-.185-.327-.475-.786-.209-.348-.059-.093-.035-.054v-.004l.136.018.171.025.084.007.244.036.143.022.122.018.398.065.087.011.223.039.08.011.293.054.052.007.206.036.161.029.461.093.182.036.51.108.147.032.234.054.091.018.049.014-.045.144-.077.244-.14.438-.038.115-.042.136-.112.312-.028.093zm.3 10.24l.182.553.063.197.024.079-.073.022-.164.036-.468.104-.143.029-.566.115-.195.036-.237.047-.08.011-.276.05-.098.014-.335.057-.133.018-.363.057-.112.018-.656.09-.182.022-.073.011h-.014l.244-.395.311-.52.126-.219.489-.843.077-.14.485-.869.164-.305.031-.065.325-.61.098-.19.122-.23.038-.083.077-.144.021-.05.059-.115.028.068.077.176.199.477.084.212.422 1.08.154.42.042.129.182.51.045.14zm-12.005-19.134l-.042.047-.15.172-.038.043-.112.133-.035.036-.101.118-.286.341-.094.111-.143.172-.374.463-.126.154-.37.477-.098.122-.297.391c-.262.363-.538.714-.792 1.084l-.098.133-.241.352-.136.194-.115.011-.094.011h-.045l-.112.014-.07.004-.192.025-.108.007-.084.011-.279.036-.213.022-.168.022-.129.014-.105.014-.342.05-.119.014-.38.057-.094.011-.356.057-.073.007-.227.039-.056.007-.192.032-.133.025-.129.022-.37.068-.195.036-.143.029-.482.097-.185.039-.195.039-.29.068-.073.014-.14.032-.073.014-.028-.118-.042-.172-.094-.431-.024-.126-.122-.592-.028-.169-.08-.438-.024-.151-.007-.061-.028-.176-.007-.061-.028-.194-.007-.05-.045-.352-.01-.097-.017-.144v-.043l-.017-.154-.007-.072-.017-.201-.003-.054-.021-.24-.003-.065-.014-.23-.003-.09-.007-.1-.003-.118v-.039l-.003-.104-.003-.23v-.406l.003-.122v-.075l.007-.205.01-.187v-.039l.01-.136.007-.122.035-.352.021-.187.021-.151.063-.38.087-.398.024-.111.098-.345c.056-.172.119-.341.185-.495.091-.212.189-.409.311-.585l.108-.147.112-.144.042-.039.08-.079.077-.075c.101-.075.206-.158.325-.212l.304-.115.22-.05.223-.029.091-.007.108-.004h.175l.07.004h.084l.206.022.143.018.332.061.045.007.367.093.23.068c.199.068.401.133.586.215l.223.09.401.179.269.136.192.1.136.072.363.208.049.025.342.208c.286.187.576.37.848.567.279.201.552.409.824.614l.461.373.056.054.401.337.157.136.028.032.164.144.052.05.248.226.073.075.265.248.105.1-.07.079-.206.23zm-30.017-7.627l-3.463-.467.817-6.403 11.422 1.54-.817 6.407-2.768-.373-4.587 35.942 8.168 2.186-5.501 15.548-13.844-1.866-1.421-16.481 7.407-.086 4.587-35.945z" sketch:type="MSShapeGroup" fill="#D5D5D5"/></svg>